<svg width="776" height="319" fill="none" preserveAspectRatio="none" xmlns="http://www.w3.org/2000/svg"><path opacity=".6" d="M17.702 202.487L2.95 239.919a19.998 19.998 0 00-1.393 7.333v49.762c0 11.046 8.954 20 20 20h732.744c11.046 0 20-8.954 20-20V2.347l-74.354 121.428a20 20 0 01-17.056 9.556h-7.574a20.001 20.001 0 01-16.544-8.762l-8.322-12.252c-8.685-12.784-27.969-11.308-34.606 2.65l-5.495 11.556a20.002 20.002 0 01-10.162 9.785l-7.309 3.143a20.002 20.002 0 01-18.309-1.296l-17.528-10.684a10.82 10.82 0 00-13.555 1.872c-5.765 6.2-16.096 3.676-18.351-4.485l-9.625-34.82a19.999 19.999 0 00-20.946-14.602l-13.063 1.095a20.002 20.002 0 00-16.138 10.824l-3.887 7.603c-5.457 10.671-19.008 14.18-28.957 7.499l-19.437-13.052c-11.283-7.577-26.675-1.935-30.388 11.138l-17.915 63.065a14.21 14.21 0 01-2.146 4.433l-1.326 1.837c-6.899 9.562-21.909 6.051-23.851-5.579l-4.072-24.376c-.63-3.774-5.615-4.728-7.593-1.453a4.136 4.136 0 01-1.262 1.311l-22.627 14.891a19.997 19.997 0 00-7.479 9.044l-12.033 29.012c-6.712 16.184-29.513 16.527-36.709.552l-14.135-31.377a18.302 18.302 0 00-4.991-6.561l-3.873-3.22c-7.641-6.35-19.254-3.41-22.952 5.811l-2.844 7.092c-2.588 6.453-10.946 8.13-15.823 3.176-4.787-4.863-12.972-3.352-15.707 2.9l-4.081 9.328a16.525 16.525 0 01-6.076 7.197l-9.135 5.995a7.943 7.943 0 00-3.536 5.767c-1.038 9.387-14.666 9.443-15.781.065l-3.445-28.997c-1.36-11.447-16.982-13.736-21.569-3.16L83.262 209.88c-2.146 4.949-8.906 5.586-11.94 1.126-2.923-4.298-9.382-3.898-11.752.728l-.405.79c-2.817 5.499-10.744 5.3-13.281-.334l-4.625-10.267c-4.645-10.313-19.41-9.96-23.557.564z" fill="url(#paint0_linear)"/><path d="M1.557 243.453l16.145-40.967c4.148-10.523 18.912-10.876 23.557-.563l4.553 10.107c2.566 5.698 10.584 5.9 13.434.338l.393-.768c2.368-4.623 8.792-5.094 11.81-.866v0c3.108 4.354 9.768 3.696 11.962-1.183l18.479-41.082c4.683-10.411 20.091-8.107 21.524 3.219l3.522 27.84c1.161 9.174 14.466 9.132 15.569-.049v0a7.841 7.841 0 013.483-5.622l9.212-6.046a16.523 16.523 0 006.076-7.196l4.081-9.328c2.735-6.252 10.92-7.763 15.707-2.9v0c4.877 4.954 13.235 3.276 15.823-3.176l2.844-7.092c3.698-9.221 15.311-12.161 22.952-5.811l3.817 3.173a18.252 18.252 0 015.042 6.69l14.041 31.922c7.147 16.247 30.341 15.827 36.894-.668l11.674-29.384a20.002 20.002 0 017.513-9.27l22.526-14.977c.339-.226.647-.494.918-.798v0c2.608-2.934 7.449-1.608 8.197 2.246l4.696 24.2c2.219 11.434 17.064 14.626 23.787 5.114v0a13.227 13.227 0 001.937-4.072l18.841-67.374c3.728-13.33 19.544-18.935 30.833-10.926l18.968 13.455c9.942 7.054 23.828 3.647 29.379-7.206l3.834-7.499a20 20 0 0115.411-10.75l13.014-1.57c9.823-1.186 19.037 4.99 21.673 14.527l9.458 34.217c2.255 8.16 12.587 10.685 18.351 4.484v0a10.82 10.82 0 0113.555-1.871l17.528 10.683a19.996 19.996 0 0018.309 1.296l7.309-3.142a20.006 20.006 0 0010.162-9.785l5.495-11.556c6.637-13.958 25.921-15.435 34.606-2.65l8.322 12.251a19.999 19.999 0 0016.544 8.762h7.641a20 20 0 0017.003-9.468l74.34-120.015" stroke="#00BEF0" stroke-width="3" stroke-linecap="round"/><path d="M774.301 317.854H1.555" stroke="#7D7D7D"/><path d="M774.301 114.424H1.555M774.301 223.68H1.555" stroke="#7D7D7D" stroke-dasharray="1 5"/><defs><linearGradient id="paint0_linear" x1="387.929" y1="111.805" x2="387.929" y2="317.014" gradientUnits="userSpaceOnUse"><stop stop-color="#3EC100" stop-opacity=".59"/><stop offset="1" stop-color="#3EC100" stop-opacity="0"/></linearGradient></defs></svg>