<svg width="125" height="32" fill="none" xmlns="http://www.w3.org/2000/svg"><path d="M33.533 23.36H17.96V19.99l7.174-7.541c1.767-2.013 2.651-3.612 2.651-4.797 0-.961-.21-1.692-.628-2.192-.42-.5-1.027-.751-1.824-.751-.787 0-1.425.337-1.916 1.011-.49.664-.736 1.497-.736 2.499h-5.18c0-1.37.342-2.632 1.027-3.786a7.185 7.185 0 012.85-2.728c1.216-.654 2.575-.981 4.078-.981 2.411 0 4.266.557 5.563 1.67 1.308 1.114 1.962 2.713 1.962 4.798 0 .878-.163 1.737-.49 2.575-.327.827-.838 1.701-1.533 2.62-.685.91-1.793 2.131-3.326 3.664l-2.882 3.326h8.783v3.985zM28.521 28.798c0-.705.235-1.278.705-1.717.48-.44 1.078-.659 1.793-.659.726 0 1.324.22 1.794.66.48.438.72 1.01.72 1.716 0 .695-.235 1.262-.705 1.701-.47.43-1.073.644-1.809.644-.725 0-1.323-.215-1.793-.644-.47-.44-.705-1.006-.705-1.701z" fill="#0094FF"/><path d="M4.9 14.697l.138 1.855c1.175-1.441 2.764-2.162 4.767-2.162 2.135 0 3.602.843 4.399 2.53 1.164-1.687 2.825-2.53 4.98-2.53 1.8 0 3.138.527 4.017 1.58.878 1.041 1.318 2.615 1.318 4.72v10.59h-4.445V20.706c0-.94-.184-1.624-.552-2.054-.368-.44-1.017-.659-1.946-.659-1.329 0-2.248.634-2.76 1.9l.016 11.389h-4.43V20.72c0-.961-.189-1.656-.567-2.085-.378-.43-1.021-.644-1.93-.644-1.258 0-2.167.521-2.73 1.564V31.28H.747V14.697H4.9zM43.969 28.016c.817 0 1.482-.225 1.992-.674.511-.45.777-1.047.797-1.793h4.154a5.72 5.72 0 01-.92 3.096c-.602.93-1.43 1.655-2.482 2.176-1.043.511-2.197.766-3.464.766-2.371 0-4.24-.75-5.61-2.253-1.37-1.512-2.054-3.596-2.054-6.253v-.291c0-2.555.68-4.593 2.038-6.116 1.36-1.522 3.224-2.284 5.595-2.284 2.074 0 3.735.593 4.981 1.778 1.257 1.175 1.896 2.744 1.916 4.706h-4.154c-.02-.859-.286-1.553-.797-2.085-.51-.541-1.185-.812-2.023-.812-1.032 0-1.813.378-2.345 1.134-.52.746-.782 1.962-.782 3.648v.46c0 1.706.261 2.932.782 3.678s1.313 1.12 2.376 1.12zM61.074 31.587c-2.432 0-4.414-.745-5.947-2.237-1.522-1.492-2.284-3.48-2.284-5.963v-.429c0-1.665.322-3.152.966-4.46.644-1.318 1.553-2.33 2.728-3.035 1.185-.715 2.534-1.073 4.047-1.073 2.268 0 4.051.716 5.349 2.146 1.308 1.43 1.962 3.459 1.962 6.085v1.809h-10.56c.142 1.083.571 1.951 1.287 2.605.725.654 1.64.981 2.743.981 1.707 0 3.04-.618 4-1.854l2.177 2.437c-.664.94-1.563 1.675-2.698 2.207-1.134.52-2.39.781-3.77.781zm-.506-13.61c-.878 0-1.594.296-2.145.889-.542.593-.89 1.44-1.043 2.544h6.162v-.352c-.02-.981-.286-1.737-.797-2.269-.511-.541-1.237-.812-2.177-.812zM74.5 14.697l.139 1.916c1.185-1.482 2.774-2.223 4.766-2.223 1.758 0 3.066.516 3.924 1.548.858 1.032 1.298 2.575 1.318 4.63V31.28h-4.43V20.674c0-.94-.204-1.62-.612-2.038-.41-.43-1.089-.644-2.039-.644-1.246 0-2.181.532-2.805 1.594v11.695h-4.43V14.697h4.17zM93.322 10.62v4.077h2.836v3.25h-2.836v8.276c0 .613.118 1.052.353 1.318s.684.399 1.349.399c.49 0 .924-.036 1.302-.108v3.357a9.117 9.117 0 01-2.682.398c-3.106 0-4.69-1.568-4.751-4.705v-8.936H86.47v-3.25h2.422V10.62h4.43zM106.259 31.587c-2.432 0-4.415-.745-5.947-2.237-1.523-1.492-2.284-3.48-2.284-5.963v-.429c0-1.665.322-3.152.965-4.46.644-1.318 1.554-2.33 2.729-3.035 1.185-.715 2.534-1.073 4.046-1.073 2.268 0 4.052.716 5.349 2.146 1.308 1.43 1.962 3.459 1.962 6.085v1.809h-10.56c.143 1.083.572 1.951 1.287 2.605.726.654 1.64.981 2.744.981 1.706 0 3.04-.618 4-1.854l2.177 2.437c-.665.94-1.564 1.675-2.698 2.207-1.134.52-2.391.781-3.77.781zm-.506-13.61c-.879 0-1.594.296-2.146.889-.542.593-.889 1.44-1.042 2.544h6.161v-.352c-.02-.981-.286-1.737-.797-2.269-.511-.541-1.236-.812-2.176-.812zM124.927 18.85a12.025 12.025 0 00-1.594-.122c-1.676 0-2.774.567-3.295 1.701v10.852h-4.43V14.697h4.184l.123 1.977c.889-1.522 2.12-2.284 3.694-2.284.49 0 .95.067 1.379.2l-.061 4.26z" fill="#fff"/></svg>