<svg width="117" height="216" fill="none" xmlns="http://www.w3.org/2000/svg"><mask id="a" style="mask-type:alpha" maskUnits="userSpaceOnUse" x="0" y="0" width="117" height="216"><path transform="matrix(-1 0 0 1 117 0)" fill="#1FA1FF" d="M0 0h117v215.3H0z"/></mask><g mask="url(#a)"><path d="M23.055 88.726s-4.036 2.301-6.143 4.047c-2.11 1.745-6.435 6.548-9.53 8.018-3.092 1.471-4.961 3.605-4.064 7.725.897 4.119 6.791 1.25 8.03-.148 1.24-1.398 5.165-5.48 6.735-6.951 1.57-1.472 4.43-4.035 5.405-5.8.97-1.766-.433-6.89-.433-6.89z" fill="#3B5770"/><path d="M15.006 25.634L33.802-.293l17.403 46.492-9.051-5.14v89.961l-18.097-10.282V30.776l-9.051-5.142z" fill="#EC2121"/><path d="M42.153 146.873l-6.966 3.81V44.868l6.966-3.81v105.815z" fill="#EC2121"/><path d="M8.04 29.446L26.833 3.518l17.404 46.49-9.05-5.14v105.816L17.09 140.402V34.586l-9.05-5.14z" fill="#FF5F5F"/><path d="M26.835 3.517l6.967-3.81 17.403 46.492-6.967 3.81L26.835 3.516z" fill="#FF2F2F"/><path d="M26.912 175.102c-.836-.514-6.255.967-6.255.967l-5.843 1.929.448 4.33s2.076 2.186 4.957.278c1.715-1.138 5.033-2.603 6.28-4.37.905-1.285 1.25-2.62.413-3.134zM12.46 166.704c-.837-.514-6.256.968-6.256.968l-5.843 1.929.448 4.329s2.078 2.186 4.957.279c1.715-1.138 5.034-2.604 6.28-4.371.905-1.284 1.249-2.62.414-3.134z" fill="#000"/><path d="M4.983 127.09s-2.688 2.592-3.103 8.04c-.188 2.452 1.141 12.908 1.141 12.908s-2.045 5.407-2.55 8.892c-.603 4.138-.455 12.217-.455 12.217.345 1.078 1.486 2.098 3.76 1.931 2.341-.17 3.991-3.122 3.991-3.122s.81-6.701 1.572-11.14c.432-2.527.924-4.201 1.168-6.303.097-2.416.346-8.292.346-8.292s2.81 10.987 3.697 14.346c-1.733 5.598-.193 20.83-.03 22.042 3.468 2.69 5.604.147 7.037-2.058-.083-3.386.466-9.359.593-14.094.102-3.733.04-5.297.102-6.553.12-2.438-1.007-9.77-1.578-15.384-.666-6.545-.801-11.277-.801-11.277l-14.89-2.153z" fill="#2A3D4F"/><path d="M20.136 108.807c-.055 3.767-.734 10.261-.658 12.285.136 3.544 1.185 11.22 1.766 13.978-1.236 1.212-6.255 3.31-10.445 2.427-2.985-.629-7.667-1.58-9.423-4.524-.021-.573 2.815-6.985 2.468-8.829-.832-4.404-1.218-9.855-1.328-13.532-.077-2.568.939-5.736 2.001-6.808 1.157-1.165 2.12-1.85 4.1-1.32 1.594.151 5.176 2.137 6.346 2.792 3.457-.143 5.187 2.42 5.173 3.531z" fill="#3B5770"/><path d="M7.384 104.403l.639-3.502 4.965 1.153s-.609 1.852 0 3.39c.022.05-3.765-.182-5.604-1.041z" fill="#FFAD97"/><path d="M6.228 93.523c1.018-2.13 4.803-4.582 8.412-1.263 1.963 1.805 2.183 6.34 1.862 8.639-.297 2.134-1.014 2.097-2.355 2.33-1.42.246-4.246-.44-6.124-2.33-2.117-2.128-2.587-5.722-1.795-7.376z" fill="#FFC5B3"/><path d="M17.26 91.963s-.132 1.618-1.233 2.574c-1.1.956-3.252 1.736-3.252 1.736s.014.691.213 1.574c.198.883-.325 1.224-.325 1.224s-1.114-1.74-1.865-.342c-.751 1.399.59 2.17.59 2.17s-.434 1.056-1.203 1.766c-.56.519-1.558 1.214-1.558 1.214s-.823-2.208-2.244-4.193c-1.42-1.987-1.826-3.601-1.83-4.414-.01-1.177.41-3.1 2.83-4.146 2.214-2.032 4.726-.803 5.374-.58.646.224 2.035.57 3.194-.165-.118 1.146-.673 1.95-.673 1.95s.937-.086 1.982-.368z" fill="#000"/><path d="M11.131 103.57c1.921 0 3.267.971 3.83 1.706 0 0-3.051 1.791-5.07.964-1.064-.436-2.733-1.336-3.116-1.821-.522-.658.609-2.059.609-2.059s1.16 1.21 3.747 1.21z" fill="#2A3D4F"/><path d="M39.525 96.154s1.35-1.543 1.41-2.647c.06-1.105.228-1.619.883-1.177.656.442.075 1.311 0 1.833-.073.52.656.89.656.89V93.14s1.943 1.541 1.765 3.014c-.177 1.472-1.461 2.062-2.352 2.282-.892.22-1.98.635-1.98.635l-.382-2.917z" fill="#FFC5B3"/><path d="M36.575 96.81s2.497-1.298 3.244-1.189c1.225.828 2.195 1.797 1.234 3.242-1.029 1.117-2.71 1.926-2.71 1.926l-1.768-3.98z" fill="#fff"/><path d="M38.134 96.083c1.65-.07 2.766 1.42 2.61 4.007-.093 1.533-6.046 6.749-8.307 8.94-1.439 1.393-10.114 6.686-12.96 7.945-2.336 1.032-2.991-1.141-3.51-2.254-.797-1.708-1-7.089-.155-8.23 1.1-1.489 3.363-1.468 4.907-1.544 2.244-.11 5.833-.944 7.682-1.772 2.376-2.619 8.015-7.02 9.733-7.092z" fill="#3B5770"/><path d="M82.641 190.337l-6.967 3.81v-64.071l6.967-3.81v64.071zM122.164 209.522l-6.967 3.81v-21.297l6.967-3.81v21.297z" fill="#FFB240"/><path d="M48.528 114.654l18.794-25.928 17.401 46.492-9.048-5.141v64.071l-18.1-10.282v-64.072l-9.047-5.14zM88.05 176.613l18.793-25.928 17.402 46.492-9.048-5.141v22.971l-18.1-10.282v-22.972l-9.047-5.14z" fill="#FFC943"/><path d="M67.32 88.725l6.967-3.81L91.69 131.41l-6.967 3.809-17.401-46.493zM106.843 150.684l6.967-3.81 17.402 46.494-6.967 3.809-17.402-46.493z" fill="#FFDC5A"/></g></svg>