<svg width="293" height="548" fill="none" xmlns="http://www.w3.org/2000/svg"><mask id="a" style="mask-type:alpha" maskUnits="userSpaceOnUse" x="0" y="0" width="293" height="548"><path fill="#1FA1FF" d="M0 .8h293v547H0z"/></mask><g mask="url(#a)"><path d="M234.602 226.945s10.085 5.843 15.351 10.276c5.269 4.431 16.08 16.628 23.812 20.361 7.729 3.736 12.399 9.155 10.156 19.619-2.241 10.458-16.969 3.172-20.067-.377-3.098-3.549-12.904-13.917-16.828-17.653-3.923-3.736-11.072-10.244-13.505-14.728-2.425-4.484 1.081-17.498 1.081-17.498z" fill="#3B5770"/><path d="M254.718 66.726L207.749.885l-43.488 118.066 22.617-13.056v228.454l45.223-26.11V79.785l22.617-13.059z" fill="#EC2121"/><path d="M186.878 374.608l17.407 9.675V115.569l-17.407-9.675v268.714z" fill="#EC2121"/><path d="M272.121 76.406l-46.962-65.844-43.489 118.062 22.614-13.052v268.714l45.223-26.111V89.458l22.614-13.052z" fill="#FF5F5F"/><path d="M225.159 10.56L207.749.886l-43.488 118.066 17.409 9.672 43.489-118.062z" fill="#FF2F2F"/><path d="M224.967 446.291c2.089-1.306 15.631 2.454 15.631 2.454l14.601 4.901-1.12 10.995s-5.188 5.552-12.386.705c-4.286-2.89-12.578-6.61-15.692-11.097-2.262-3.263-3.125-6.652-1.034-7.958zM261.08 424.968c2.091-1.306 15.634 2.457 15.634 2.457l14.6 4.9-1.119 10.993s-5.192 5.552-12.387.707c-4.286-2.889-12.578-6.612-15.695-11.099-2.259-3.261-3.119-6.652-1.033-7.958z" fill="#000"/><path d="M279.764 324.369s6.719 6.583 7.755 20.417c.47 6.228-2.852 32.779-2.852 32.779s5.111 13.733 6.375 22.581c1.503 10.509 1.135 31.024 1.135 31.024-.863 2.738-3.713 5.328-9.398 4.906-5.849-.433-9.972-7.929-9.972-7.929s-2.025-17.017-3.927-28.29c-1.081-6.417-2.309-10.669-2.918-16.005-.243-6.137-.866-21.058-.866-21.058s-7.021 27.9-9.238 36.43c4.33 14.216.481 52.897.075 55.977-8.666 6.831-14.004.371-17.586-5.227.209-8.599-1.164-23.768-1.482-35.792-.253-9.48-.099-13.452-.254-16.64-.302-6.191 2.516-24.81 3.945-39.069 1.664-16.619 2-28.637 2-28.637l37.208-5.467z" fill="#2A3D4F"/><path d="M241.899 277.939c.136 9.566 1.832 26.057 1.643 31.198-.339 8.998-2.962 28.491-4.412 35.496 3.087 3.076 15.631 8.404 26.1 6.164 7.459-1.597 19.159-4.014 23.547-11.49.053-1.455-7.035-17.738-6.167-22.42 2.078-11.184 3.044-25.026 3.32-34.365.192-6.522-2.348-14.566-5.003-17.287-2.889-2.959-5.298-4.698-10.244-3.352-3.985.382-12.934 5.427-15.858 7.088-8.64-.363-12.963 6.148-12.926 8.968z" fill="#3B5770"/><path d="M273.765 266.753l-1.597-8.894-12.407 2.93s1.522 4.703 0 8.608c-.054.128 9.408-.462 14.004-2.644z" fill="#FFAD97"/><path d="M276.655 239.127c-2.545-5.408-12.002-11.635-21.021-3.207-4.906 4.585-5.454 16.098-4.653 21.939.743 5.418 2.534 5.325 5.884 5.916 3.547.625 10.611-1.116 15.303-5.916 5.291-5.405 6.466-14.531 4.487-18.732z" fill="#FFC5B3"/><path d="M249.083 235.163s.331 4.11 3.082 6.537c2.748 2.428 8.127 4.41 8.127 4.41s-.035 1.754-.532 3.995c-.496 2.243.812 3.109.812 3.109s2.783-4.42 4.66-.868c1.878 3.552-1.477 5.512-1.477 5.512s1.087 2.681 3.007 4.484c1.4 1.316 3.894 3.082 3.894 3.082s2.057-5.606 5.609-10.648c3.546-5.045 4.564-9.144 4.574-11.209.022-2.988-1.028-7.87-7.071-10.527-5.534-5.163-11.813-2.041-13.431-1.475-1.616.569-5.085 1.448-7.983-.419.297 2.911 1.683 4.952 1.683 4.952s-2.342-.217-4.954-.935z" fill="#000"/><path d="M264.401 264.638c-4.801 0-8.164 2.468-9.571 4.335 0 0 7.625 4.548 12.67 2.446 2.66-1.105 6.829-3.392 7.787-4.623 1.304-1.672-1.522-5.229-1.522-5.229s-2.901 3.071-9.364 3.071z" fill="#2A3D4F"/><path d="M193.448 245.806s-3.376-3.918-3.525-6.722c-.15-2.804-.569-4.11-2.206-2.988-1.637 1.121-.187 3.33 0 4.655.184 1.322-1.637 2.259-1.637 2.259v-4.858s-4.856 3.915-4.412 7.654c.443 3.739 3.651 5.237 5.878 5.795 2.228.561 4.949 1.613 4.949 1.613l.953-7.408z" fill="#FFC5B3"/><path d="M200.822 247.472s-6.241-3.296-8.108-3.018c-3.06 2.102-5.485 4.562-3.082 8.231 2.569 2.836 6.77 4.893 6.77 4.893l4.42-10.106z" fill="#fff"/><path d="M196.923 245.626c-4.123-.179-6.912 3.606-6.519 10.175.229 3.894 15.105 17.14 20.756 22.703 3.595 3.539 25.273 16.98 32.385 20.177 5.838 2.62 7.475-2.898 8.77-5.723 1.992-4.337 2.502-18.003.39-20.901-2.751-3.781-8.405-3.728-12.264-3.92-5.606-.281-14.576-2.398-19.197-4.5-5.936-6.65-20.026-17.827-24.321-18.011z" fill="#3B5770"/><path d="M85.704 484.982l17.409 9.676V331.953l-17.41-9.676v162.705zM-13.057 533.703l17.41 9.676v-54.084l-17.41-9.676v54.084z" fill="#FFB240"/><path d="M170.95 292.79l-46.963-65.844-43.485 118.065 22.611-13.055v162.705l45.229-26.111V305.842l22.608-13.052zM72.19 450.131l-46.963-65.844-43.486 118.065 22.612-13.055v58.334l45.228-26.111v-58.337l22.608-13.052z" fill="#FFC943"/><path d="M123.987 226.944l-17.409-9.675-43.485 118.068 17.409 9.673 43.485-118.066zM25.227 384.286l-17.41-9.675-43.485 118.069 17.41 9.672 43.484-118.066z" fill="#FFDC5A"/></g></svg>