<svg width="344" height="395" fill="none" xmlns="http://www.w3.org/2000/svg"><path d="M48.178 110.52v109.174L.605 192.247V82.466l47.573 28.054z" fill="#BA353B"/><path d="M95.14 82.466v109.172l-46.962 28.056V109.91l46.963-27.444z" fill="#E7424A"/><path d="M95.14 82.466L48.179 55.02.605 82.466l46.963 28.054L95.14 82.466z" fill="#FE4B53"/><path d="M118.927 183.707v76.847l-47.573-27.446V155.65l47.573 28.057z" fill="#BA353B"/><path d="M165.89 155.65v76.849l-46.963 28.055v-77.459l46.963-27.445z" fill="#E7424A"/><path d="M165.89 155.65l-46.963-27.445-47.573 27.445 46.964 28.058 47.572-28.058z" fill="#FE4B53"/><path d="M189.677 261.167v40.864l-47.574-27.446V233.11l47.574 28.057z" fill="#BA353B"/><path d="M236.639 233.11v40.866l-46.962 28.055v-41.475l46.962-27.446z" fill="#E7424A"/><path d="M236.639 233.111l-46.962-27.446-47.574 27.446 46.963 28.056 47.573-28.056z" fill="#FE4B53"/><path d="M36.04 21.066L71.047.607l69.497 39.71.518.3 35.344 100.593.118.338 70.015 40.01-35.008 22.276-1.127-.645-69.797-40.273-.091-.254-34.461-101.586-.71-.41-69.307-39.6z" fill="#BA353B"/><path d="M140.517 162.663l35.89-21.452.118.337 70.015 40.01.218.617-36.353 21.015-69.797-40.274-.091-.253zM36.04 21.068L71.046.608l69.497 39.71-35.199 20.35-69.306-39.6z" fill="#E7424A"/><path d="M238.278 187.831c.096 0 3.488.607 3.488.607l2.783 2.717.973.967a15.953 15.953 0 006.578 3.93l5.695 3.422 2.687-6.655-6.194-2.335-5-5.631-3.775-2.813-3.295-1.92-6.364-.576c-1.217 0-1.138 1.328-.178 1.298l-.814.368c-.979.399-.374 1.631.349 1.565h.896c-.752.415-.576 1.458.48 1.472l2.369.096 2.91.833 1.215.928-4.289-.48c-2.273-.159-2.496 1.759-.514 2.207z" fill="#FFB294"/><path d="M255.201 202.419c-2.878-4.125 1.632-11.902 5.192-10.963 9.302 3.371 17.971 6.823 24.271 10.579 7.781 4.253 18.228 9.848 23.593 16.849 2.42 8.954-1.106 15.101-6.712 16.55l-21.295-21.113-25.049-11.902z" fill="#3B5770"/><path d="M234.578 207.486l-1.551-4.971-4.206-4.626-3.135-5.247-2.303-4.607-.21-1.776c-.287-1.82 1.104-2.158 1.51-.62l.363 1.629 2.303 3.456-1.727-4.707-.678-2.596c-.601-2.152.727-2.904 1.381-1.206l1.09 3.262 1.918 3.07-1.854-4.478-1.281-4.03c-.448-1.633.845-2.479 1.663-.894l1.599 4.028 2.367 4.352-1.663-5.31-.616-3.191c-.408-1.912.951-2.424 1.703-.457l1.151 3.454 2.176 4.735 2.623 4.028-.641-3.455-1.791-2.175c-1.009-1.389-.081-2.574 1.022-1.597l2.496 2.458 1.984 4.707v7.743l2.175 6.206-7.868 2.815z" fill="#FFB294"/><path d="M289.063 271.415c-8.233 6.944-16.957 13.499-17.817 26.187.945 9.314 22.083 21.817 37.547 32.432 4.072 2.564 12.664-6.245 9.427-11.375-6.867-7.526-14.366-14.224-22.27-20.382l7.422-12.821-14.309-14.041z" fill="#2A3D4F"/><path d="M308.995 335.946l-.81-6.173 2.923-6.498a5.756 5.756 0 016.536-3.248l1.288.297c1.703.72 3.417 2.345 5.138 4.427.533.646.68 1.53.391 2.313l-.799 2.169 1.26 3.418c-1.923 4.282-5.153 7.328-9.357 9.446l-6.57-6.151zM322.764 371.166l4.048 6.568-1.724 3.239c-1.056 1.98-3.011 3.261-5.226 3.613-2.241.353-3.983 1.347-5.104 3.138-1.262 2.787 1.616 6.202 8.186 6.659 3.667-.44 8.081-2.776 10.619-5.58l1.704.875c4.091-2.186 7.063-4.068 8.422-6.804-2.489-6.211-4.713-9.202-8.146-10.808l-5.759-5.671-7.02 4.771z" fill="#000"/><path d="M325.372 379.939c-5.616-7.689-11.498-13.79-17.185-19.483-5.794-5.797-11.385-11.169-16.29-17.367-5.905-15.146-9.382-30.578-10.888-46.227a139.871 139.871 0 01-.313-3.581l22.676-2.433c.038.65.081 1.296.125 1.946.374 5.258 1.011 10.373 1.755 15.396 1.3 8.741 2.938 17.24 4.129 25.852 9.162 8.499 18.842 22.979 28.681 39.278 1.213 3.512-10.799 10.396-12.69 6.619z" fill="#2A3D4F"/><path opacity=".3" d="M308.187 360.457c-5.794-5.797-11.385-11.169-16.29-17.367-5.905-15.146-9.382-30.578-10.888-46.227l22.136-4.618.35.552c.374 5.258 1.011 10.373 1.755 15.397-2.025 1.253-4.147 2.162-6.324 2.668-6.014 1.41-9.648 7.591-8.174 13.588 1.236 5.06 2.666 9.884 4.336 14.41l13.099 21.597z" fill="#2A3D4F"/><path d="M316.924 279.63c.007 8.836-4.643 15.944-8.919 19.094-4.896 3.618-13.168 4.584-20.252 3.981-3.422-.293-6.57-.946-8.928-1.846-4.198-3.856-1.583-15.275-1.593-24.45-.007-7.543-4.553-13.097-8.189-24.717-1.411-4.49-2.685-9.896-3.505-16.677l8.191-4.567 26.278-12.348c2.598-.01 3.643-.07 8.255.782 7.936 12.985 4.643 31.402 6.047 44.748.746 7.161 2.615 16 2.615 16z" fill="#3B5770"/><path opacity=".3" d="M287.751 302.705c-3.422-.293-6.57-.945-8.928-1.846-4.198-3.855-1.113-15.287-1.593-24.449-.325-6.215-7.522-19.369-10.532-33.603 1.778-1.765 9.463 1.823 8.868 2.5-.711.81 6.383 19.076 5.13 29.618-1.519 12.775 6.084 26.145 7.055 27.78z" fill="#2A3D4F"/><path d="M275.214 193.04c-6.447.601-8.03 3.148-7.55 8.911-1.508 3.167 2.573 10.347 4.616 14.733.591 1.269 1.621 3.125 4.376 2.843.96.161 1.353 1.049 1.665 1.975.585 1.733.4 3.783.4 3.783 7.568-.584 13.896-2.302 16.211-7.683l-3.424-2.834-5.599-21.728h-10.695z" fill="#FFB294"/><path d="M267.339 204.308c1.037.058 2.464-.652 4.212 2.734a77.115 77.115 0 011.356 2.791l3.645.663 2.054 4.622c.65 1.462 3.001 3.896 4.603 3.915 2.706.03 7.031-1.893 8.476-3.77 0 0 1.327-9.523 0-13.973-1.328-4.448-2.309-7.974-6.513-9.944-4.204-1.969-11.397-.537-14.7 1.695-6.957 5.007-5.117 10.016-3.133 11.267z" fill="#000"/><path d="M274.186 211.141a5.815 5.815 0 01-.453-1.972c-.03-.579.064-1.236.527-1.591.438-.333 1.085-.274 1.551.019.467.296.779.776 1.028 1.267.686 1.357.983 2.942.628 4.418-.104.433-.335.92-.775.988-.436.066-.799-.315-1.06-.669a19.493 19.493 0 01-1.842-3.008l.396.548z" fill="#FFB294"/><path d="M274.655 228.948l3.641-5.009c7.664-.507 15.3-3.982 16.851-6.992l4.034 1.869-8.512 7.411-16.014 2.721z" fill="#fff"/><path d="M269.064 229.91s10.85 6.067 26.735-3.477c5.3-3.185 5.72-6.358 5.72-6.358.311-1.472-2.34-2.806-4.802-2.4-1.632 5.896-14.793 8.324-20.486 9.1l-7.167 3.135z" fill="#1E3A47"/><path d="M231.827 205.602c3.479 10.761 5.268 18.049 9.196 23.508 3.417 5.181 17.203 12.933 26.571 17.782 4.582 2.373 8.399.538 10.557-4.148l1.368-2.186c2.05-7.656-4.237-10.8-9.204-12.567-6.394-2.277-12.898-5.788-19.485-10.202l-8.828-17.179c-2.689-2.974-10.175.48-10.175 4.992z" fill="#3B5770"/></svg>