<?xml version="1.0" encoding="utf-8"?><svg viewBox="0 0 502.66 502.66" xmlns="http://www.w3.org/2000/svg" xmlns:xlink="http://www.w3.org/1999/xlink"><style>:root>svg{display:none}:root>svg:target{display:block}</style><svg viewBox="0 0 19 17" id="Vector" xmlns="http://www.w3.org/2000/svg"><path d="M17.862 14.798c-.356 1.006-1.77 1.84-2.898 2.083-.772.165-1.78.296-5.172-1.11-4.34-1.799-7.134-6.208-7.352-6.494C2.231 8.99.687 6.942.687 4.823c0-2.12 1.076-3.151 1.51-3.594.356-.364.944-.53 1.51-.53.182 0 .346.01.494.017.434.018.652.044.938.729.356.858 1.223 2.977 1.327 3.195.105.218.21.513.063.8-.139.295-.26.426-.479.677-.217.25-.424.443-.642.712-.2.235-.424.486-.173.92.25.424 1.118 1.84 2.395 2.977 1.649 1.467 2.985 1.936 3.463 2.135.357.148.781.113 1.041-.164.33-.356.739-.947 1.154-1.528.295-.417.668-.47 1.06-.322.398.139 2.508 1.182 2.942 1.398.434.218.72.321.825.504.103.182.103 1.04-.253 2.049z"/></svg><svg viewBox="0 0 104 16" id="arrow" xmlns="http://www.w3.org/2000/svg"><path d="M95.729 14.356l6.318-6.318M95.729 1.72l6.318 6.318m0 0L1.167 8.04" stroke="#EC2121" stroke-width="2" stroke-linecap="round" stroke-linejoin="round"/></svg><svg viewBox="0 0 18 19" id="close" xmlns="http://www.w3.org/2000/svg"><path d="M16.735 17.408L.83 1.5M16.736 1.676L.828 17.583" stroke="#EC2121" stroke-width="2"/></svg><svg viewBox="0 0 502.664 502.664" id="icon" xmlns="http://www.w3.org/2000/svg"><path d="M153.821 358.226L0 274.337v-46.463l153.821-83.414v54.574L46.636 250.523l107.185 53.431v54.272zM180.094 387.584L282.103 115.08h32.227L212.084 387.584h-31.99zM348.843 358.226v-54.272l107.164-52.999-107.164-52.59v-53.927l153.821 83.522v46.183l-153.821 84.083z"/></svg><svg viewBox="0 0 11 17" id="nextArrow" xmlns="http://www.w3.org/2000/svg"><path d="M2.49 14.804l6.318-6.318L2.49 2.167" stroke="currentColor" stroke-width="4" stroke-linecap="round" stroke-linejoin="round"/></svg><svg viewBox="0 0 19 17" id="phone" xmlns="http://www.w3.org/2000/svg"><path d="M17.862 14.798c-.356 1.006-1.77 1.84-2.898 2.083-.772.165-1.78.296-5.172-1.11-4.34-1.799-7.134-6.208-7.352-6.494C2.231 8.99.687 6.942.687 4.823c0-2.12 1.076-3.151 1.51-3.594.356-.364.944-.53 1.51-.53.182 0 .346.01.494.017.434.018.652.044.938.729.356.858 1.223 2.977 1.327 3.195.105.218.21.513.063.8-.139.295-.26.426-.479.677-.217.25-.424.443-.642.712-.2.235-.424.486-.173.92.25.424 1.118 1.84 2.395 2.977 1.649 1.467 2.985 1.936 3.463 2.135.357.148.781.113 1.041-.164.33-.356.739-.947 1.154-1.528.295-.417.668-.47 1.06-.322.398.139 2.508 1.182 2.942 1.398.434.218.72.321.825.504.103.182.103 1.04-.253 2.049z"/></svg><svg viewBox="0 0 12 17" id="prevArrow" xmlns="http://www.w3.org/2000/svg"><path d="M9.1 2.168L2.783 8.486l6.319 6.318" stroke="currentColor" stroke-width="4" stroke-linecap="round" stroke-linejoin="round"/></svg><svg viewBox="0 0 19 18" id="tel" xmlns="http://www.w3.org/2000/svg"><path d="M17.954 14.87c-.356 1.005-1.77 1.84-2.898 2.083-.771.165-1.779.296-5.172-1.11-4.339-1.799-7.134-6.208-7.351-6.494C2.324 9.062.779 7.014.779 4.895c0-2.12 1.076-3.151 1.51-3.594.356-.364.945-.53 1.51-.53.183 0 .347.01.494.017.434.018.652.044.938.729.356.858 1.224 2.977 1.327 3.195.106.218.21.513.063.8-.138.294-.26.425-.478.676-.218.252-.425.443-.642.713-.2.234-.425.485-.174.92.251.424 1.119 1.84 2.396 2.976 1.648 1.468 2.985 1.937 3.463 2.136.356.148.78.113 1.04-.164.331-.356.74-.947 1.154-1.528.296-.418.669-.47 1.06-.322.399.139 2.508 1.182 2.942 1.398.434.217.72.32.825.503.104.183.104 1.042-.253 2.05z"/></svg><svg viewBox="0 0 19 16" id="telegram" xmlns="http://www.w3.org/2000/svg"><path d="M7.76 10.213l-.287 4.04c.41 0 .589-.176.802-.388l1.927-1.841 3.992 2.923c.732.408 1.248.193 1.446-.673l2.62-12.28C18.494.91 17.87.488 17.157.754L1.753 6.65c-1.051.408-1.035.994-.179 1.26l3.938 1.224 9.147-5.723c.43-.285.822-.128.5.158L7.76 10.213z"/></svg><svg viewBox="0 0 18 17" id="whatsapp" xmlns="http://www.w3.org/2000/svg"><path d="M8.969.103h-.004C4.32.103.545 3.88.545 8.525a8.36 8.36 0 001.603 4.936l-1.05 3.129 3.238-1.035a8.35 8.35 0 004.633 1.392c4.643 0 8.42-3.779 8.42-8.422 0-4.644-3.777-8.422-8.42-8.422zm4.9 11.892c-.203.574-1.01 1.05-1.652 1.189-.44.094-1.015.168-2.95-.634-2.475-1.025-4.07-3.54-4.193-3.703-.12-.164-1-1.332-1-2.54 0-1.21.613-1.798.86-2.05.204-.208.54-.302.862-.302.104 0 .198.005.282.009.247.01.372.025.535.416.203.49.698 1.698.757 1.822.06.124.12.293.035.456-.079.168-.148.243-.272.386-.124.144-.242.253-.367.407-.113.133-.242.277-.099.524.144.242.638 1.05 1.367 1.698.94.837 1.702 1.104 1.975 1.218.203.084.445.064.594-.094.188-.203.42-.54.658-.871.168-.238.38-.268.604-.183.227.079 1.43.673 1.678.796.247.125.41.184.47.288.06.104.06.594-.144 1.168z"/></svg></svg>