<svg width="44" height="42" fill="none" xmlns="http://www.w3.org/2000/svg"><path d="M19.272 3.913c1.166-1.938 3.975-1.938 5.141 0l4.376 7.27a3 3 0 001.893 1.376l8.267 1.915c2.203.51 3.07 3.181 1.589 4.889l-5.563 6.408a3 3 0 00-.723 2.226l.733 8.453c.196 2.253-2.077 3.904-4.159 3.022l-7.813-3.31a3.001 3.001 0 00-2.34 0l-7.814 3.31c-2.082.882-4.354-.769-4.159-3.021l.734-8.454a3 3 0 00-.723-2.226l-5.563-6.408c-1.482-1.708-.614-4.38 1.589-4.89l8.266-1.914a3 3 0 001.894-1.376l4.375-7.27z" stroke="#fff" stroke-width="4"/></svg>