<svg width="776" height="319" viewBox="0 0 776 319" fill="none" preserveAspectRatio="none" xmlns="http://www.w3.org/2000/svg">
<path opacity="0.6" d="M17.7022 202.487L2.95002 239.919C2.02965 242.254 1.55713 244.742 1.55713 247.252V297.014C1.55713 308.06 10.5114 317.014 21.5571 317.014H754.301C765.347 317.014 774.301 308.06 774.301 297.014V2.34668L699.947 123.775C696.312 129.711 689.852 133.331 682.891 133.331H675.317C668.691 133.331 662.496 130.049 658.773 124.569L650.451 112.317C641.766 99.5329 622.482 101.009 615.845 114.967L610.35 126.523C608.263 130.911 604.651 134.389 600.188 136.308L592.879 139.451C586.927 142.01 580.103 141.527 574.57 138.155L557.042 127.471C552.653 124.796 546.987 125.578 543.487 129.343C537.722 135.543 527.391 133.019 525.136 124.858L515.511 90.0384C512.949 80.7674 504.15 74.6336 494.565 75.4365L481.502 76.5307C474.614 77.1077 468.512 81.2008 465.364 87.3554L461.477 94.9584C456.02 105.629 442.469 109.138 432.52 102.457L413.083 89.4047C401.8 81.8281 386.408 87.4699 382.695 100.543L364.78 163.608C364.328 165.199 363.602 166.7 362.634 168.041L361.308 169.878C354.409 179.44 339.399 175.929 337.457 164.299L333.385 139.923C332.755 136.149 327.77 135.195 325.792 138.47C325.474 138.995 325.043 139.443 324.53 139.781L301.903 154.672C298.562 156.871 295.956 160.021 294.424 163.716L282.391 192.728C275.679 208.912 252.878 209.255 245.682 193.28L231.547 161.903C230.404 159.365 228.697 157.121 226.556 155.342L222.683 152.122C215.042 145.772 203.429 148.712 199.731 157.933L196.887 165.025C194.299 171.478 185.941 173.155 181.064 168.201C176.277 163.338 168.092 164.849 165.357 171.101L161.276 180.429C159.992 183.366 157.881 185.867 155.2 187.626L146.065 193.621C144.086 194.92 142.789 197.035 142.529 199.388C141.491 208.775 127.863 208.831 126.748 199.453L123.303 170.456C121.943 159.009 106.321 156.72 101.734 167.296L83.2622 209.88C81.1158 214.829 74.3557 215.466 71.3223 211.006C68.399 206.708 61.9402 207.108 59.57 211.734L59.1654 212.524C56.348 218.023 48.4214 217.824 45.8838 212.19L41.2591 201.923C36.6136 191.61 21.8497 191.963 17.7022 202.487Z" fill="url(#paint0_linear)"/>
<path d="M1.55713 243.453L17.7022 202.486C21.8497 191.963 36.6136 191.61 41.2591 201.923L45.8117 212.03C48.3784 217.728 56.3958 217.93 59.2455 212.368L59.6388 211.6C62.0073 206.977 68.4313 206.506 71.4488 210.734V210.734C74.5567 215.088 81.2167 214.43 83.4113 209.551L101.89 168.469C106.573 158.058 121.981 160.362 123.414 171.688L126.936 199.528C128.097 208.702 141.402 208.66 142.505 199.479V199.479C142.78 197.183 144.055 195.126 145.988 193.857L155.2 187.811C157.881 186.052 159.992 183.552 161.276 180.615L165.357 171.287C168.092 165.035 176.277 163.524 181.064 168.387V168.387C185.941 173.341 194.299 171.663 196.887 165.211L199.731 158.119C203.429 148.898 215.042 145.958 222.683 152.308L226.5 155.481C228.677 157.29 230.403 159.581 231.542 162.171L245.583 194.093C252.73 210.34 275.924 209.92 282.477 193.425L294.151 164.041C295.654 160.259 298.275 157.024 301.664 154.771L324.19 139.794C324.529 139.568 324.837 139.3 325.108 138.996V138.996C327.716 136.062 332.557 137.388 333.305 141.242L338.001 165.442C340.22 176.876 355.065 180.068 361.788 170.556V170.556C362.662 169.32 363.317 167.942 363.725 166.484L382.566 99.1097C386.294 85.7796 402.11 80.1752 413.399 88.1838L432.367 101.639C442.309 108.693 456.195 105.286 461.746 94.4325L465.58 86.9341C468.609 81.0103 474.386 76.9807 480.991 76.1837L494.005 74.6134C503.828 73.4281 513.042 79.6041 515.678 89.1411L525.136 123.358C527.391 131.518 537.723 134.043 543.487 127.842V127.842C546.987 124.078 552.653 123.295 557.042 125.971L574.57 136.654C580.103 140.027 586.927 140.51 592.879 137.95L600.188 134.808C604.651 132.889 608.263 129.41 610.35 125.023L615.845 113.467C622.482 99.5089 641.766 98.0324 650.451 110.817L658.773 123.068C662.496 128.549 668.691 131.83 675.317 131.83H682.958C689.883 131.83 696.314 128.249 699.961 122.362L774.301 2.34668" stroke="#00BEF0" stroke-width="3" stroke-linecap="round"/>
<path d="M774.301 317.854L1.55483 317.854" stroke="#7D7D7D"/>
<path d="M774.301 114.424L1.55483 114.424" stroke="#7D7D7D" stroke-dasharray="1 5"/>
<path d="M774.301 223.68L1.55483 223.68" stroke="#7D7D7D" stroke-dasharray="1 5"/>
<defs>
<linearGradient id="paint0_linear" x1="387.929" y1="111.805" x2="387.929" y2="317.014" gradientUnits="userSpaceOnUse">
<stop stop-color="#3EC100" stop-opacity="0.59"/>
<stop offset="1" stop-color="#3EC100" stop-opacity="0"/>
</linearGradient>
</defs>
</svg>
