<svg width="293" height="548" viewBox="0 0 293 548" fill="none" xmlns="http://www.w3.org/2000/svg">
<mask id="mask0_3658_62" style="mask-type:alpha" maskUnits="userSpaceOnUse" x="0" y="0" width="293" height="548">
<rect y="0.800049" width="293" height="547" fill="#1FA1FF"/>
</mask>
<g mask="url(#mask0_3658_62)">
<path d="M234.602 226.945C234.602 226.945 244.687 232.788 249.953 237.221C255.222 241.652 266.033 253.849 273.765 257.582C281.494 261.318 286.164 266.737 283.921 277.201C281.68 287.659 266.952 280.373 263.854 276.824C260.756 273.275 250.95 262.907 247.026 259.171C243.103 255.435 235.954 248.927 233.521 244.443C231.096 239.959 234.602 226.945 234.602 226.945Z" fill="#3B5770"/>
<path d="M254.718 66.7261L207.749 0.88501L164.261 118.951L186.878 105.895V334.349L232.101 308.239V79.7845L254.718 66.7261Z" fill="#EC2121"/>
<path d="M186.878 374.608L204.285 384.283V115.569L186.878 105.894V374.608Z" fill="#EC2121"/>
<path d="M272.121 76.4058L225.159 10.5618L181.67 128.624L204.284 115.572V384.286L249.507 358.175V89.458L272.121 76.4058Z" fill="#FF5F5F"/>
<path d="M225.159 10.5607L207.749 0.88501L164.261 118.951L181.67 128.623L225.159 10.5607Z" fill="#FF2F2F"/>
<path d="M224.967 446.291C227.056 444.985 240.598 448.745 240.598 448.745L255.199 453.646L254.079 464.641C254.079 464.641 248.891 470.193 241.693 465.346C237.407 462.456 229.115 458.736 226.001 454.249C223.739 450.986 222.876 447.597 224.967 446.291Z" fill="black"/>
<path d="M261.08 424.968C263.171 423.662 276.714 427.425 276.714 427.425L291.314 432.325L290.195 443.318C290.195 443.318 285.003 448.87 277.808 444.025C273.522 441.136 265.23 437.413 262.113 432.926C259.854 429.665 258.994 426.274 261.08 424.968Z" fill="black"/>
<path d="M279.764 324.369C279.764 324.369 286.483 330.952 287.519 344.786C287.989 351.014 284.667 377.565 284.667 377.565C284.667 377.565 289.778 391.298 291.042 400.146C292.545 410.655 292.177 431.17 292.177 431.17C291.314 433.908 288.464 436.498 282.779 436.076C276.93 435.643 272.807 428.147 272.807 428.147C272.807 428.147 270.782 411.13 268.88 399.857C267.799 393.44 266.571 389.188 265.962 383.852C265.719 377.715 265.096 362.794 265.096 362.794C265.096 362.794 258.075 390.694 255.858 399.224C260.188 413.44 256.339 452.121 255.933 455.201C247.267 462.032 241.929 455.572 238.347 449.974C238.556 441.375 237.183 426.206 236.865 414.182C236.612 404.702 236.766 400.73 236.611 397.542C236.309 391.351 239.127 372.732 240.556 358.473C242.22 341.854 242.556 329.836 242.556 329.836L279.764 324.369Z" fill="#2A3D4F"/>
<path d="M241.899 277.939C242.035 287.505 243.731 303.996 243.542 309.137C243.203 318.135 240.58 337.628 239.13 344.633C242.217 347.709 254.761 353.037 265.23 350.797C272.689 349.2 284.389 346.783 288.777 339.307C288.83 337.852 281.742 321.569 282.61 316.887C284.688 305.703 285.654 291.861 285.93 282.522C286.122 276 283.582 267.956 280.927 265.235C278.038 262.276 275.629 260.537 270.683 261.883C266.698 262.265 257.749 267.31 254.825 268.971C246.185 268.608 241.862 275.119 241.899 277.939Z" fill="#3B5770"/>
<path d="M273.765 266.753L272.168 257.859L259.761 260.789C259.761 260.789 261.283 265.492 259.761 269.397C259.707 269.525 269.169 268.935 273.765 266.753Z" fill="#FFAD97"/>
<path d="M276.655 239.127C274.11 233.719 264.653 227.492 255.634 235.92C250.728 240.505 250.18 252.018 250.981 257.859C251.724 263.277 253.515 263.184 256.865 263.775C260.412 264.4 267.476 262.659 272.168 257.859C277.459 252.454 278.634 243.328 276.655 239.127Z" fill="#FFC5B3"/>
<path d="M249.083 235.163C249.083 235.163 249.414 239.273 252.165 241.7C254.913 244.128 260.292 246.11 260.292 246.11C260.292 246.11 260.257 247.864 259.76 250.105C259.264 252.348 260.572 253.214 260.572 253.214C260.572 253.214 263.355 248.794 265.232 252.346C267.11 255.898 263.755 257.858 263.755 257.858C263.755 257.858 264.842 260.539 266.762 262.342C268.162 263.658 270.656 265.424 270.656 265.424C270.656 265.424 272.713 259.818 276.265 254.776C279.811 249.731 280.829 245.632 280.839 243.567C280.861 240.579 279.811 235.697 273.768 233.04C268.234 227.877 261.955 230.999 260.337 231.565C258.721 232.134 255.252 233.013 252.354 231.146C252.651 234.057 254.037 236.098 254.037 236.098C254.037 236.098 251.695 235.881 249.083 235.163Z" fill="black"/>
<path d="M264.401 264.638C259.6 264.638 256.237 267.106 254.83 268.973C254.83 268.973 262.455 273.521 267.5 271.419C270.16 270.314 274.329 268.027 275.287 266.796C276.591 265.124 273.765 261.567 273.765 261.567C273.765 261.567 270.864 264.638 264.401 264.638Z" fill="#2A3D4F"/>
<path d="M193.448 245.806C193.448 245.806 190.072 241.888 189.923 239.084C189.773 236.28 189.354 234.974 187.717 236.096C186.08 237.217 187.53 239.426 187.717 240.751C187.901 242.073 186.08 243.01 186.08 243.01V238.152C186.08 238.152 181.224 242.067 181.668 245.806C182.111 249.545 185.319 251.043 187.546 251.601C189.774 252.162 192.495 253.214 192.495 253.214L193.448 245.806Z" fill="#FFC5B3"/>
<path d="M200.822 247.472C200.822 247.472 194.581 244.176 192.714 244.454C189.654 246.556 187.229 249.016 189.632 252.685C192.201 255.521 196.402 257.578 196.402 257.578L200.822 247.472Z" fill="white"/>
<path d="M196.923 245.626C192.8 245.447 190.011 249.232 190.404 255.801C190.633 259.695 205.509 272.941 211.16 278.504C214.755 282.043 236.433 295.484 243.545 298.681C249.383 301.301 251.02 295.783 252.315 292.958C254.307 288.621 254.817 274.955 252.705 272.057C249.954 268.276 244.3 268.329 240.441 268.137C234.835 267.856 225.865 265.739 221.244 263.637C215.308 256.987 201.218 245.81 196.923 245.626Z" fill="#3B5770"/>
<path d="M85.7036 484.982L103.113 494.658V331.953L85.7036 322.277V484.982Z" fill="#FFB240"/>
<path d="M-13.0569 533.703L4.35299 543.379V489.295L-13.0569 479.619L-13.0569 533.703Z" fill="#FFB240"/>
<path d="M170.95 292.79L123.987 226.946L80.5019 345.011L103.113 331.956V494.661L148.342 468.55V305.842L170.95 292.79Z" fill="#FFC943"/>
<path d="M72.1891 450.131L25.2265 384.287L-18.2586 502.352L4.35297 489.297V547.631L49.5814 521.52V463.183L72.1891 450.131Z" fill="#FFC943"/>
<path d="M123.987 226.944L106.578 217.269L63.0928 335.337L80.5019 345.01L123.987 226.944Z" fill="#FFDC5A"/>
<path d="M25.2265 384.286L7.81738 374.611L-35.6677 492.68L-18.2586 502.352L25.2265 384.286Z" fill="#FFDC5A"/>
</g>
</svg>
