<svg width="117" height="216" viewBox="0 0 117 216" fill="none" xmlns="http://www.w3.org/2000/svg">
<mask id="mask0_3658_4" style="mask-type:alpha" maskUnits="userSpaceOnUse" x="0" y="0" width="117" height="216">
<rect width="117" height="215.3" transform="matrix(-1 0 0 1 117 0)" fill="#1FA1FF"/>
</mask>
<g mask="url(#mask0_3658_4)">
<path d="M23.0547 88.7263C23.0547 88.7263 19.0191 91.0274 16.9116 92.7731C14.8029 94.5178 10.4767 99.3207 7.38274 100.791C4.28984 102.262 2.42066 104.396 3.31839 108.516C4.21505 112.635 10.109 109.766 11.3487 108.368C12.5885 106.97 16.5129 102.888 18.0828 101.417C19.6528 99.9454 22.5139 97.3825 23.4875 95.6168C24.4579 93.851 23.0547 88.7263 23.0547 88.7263Z" fill="#3B5770"/>
<path d="M15.0056 25.6343L33.8017 -0.292969L51.2047 46.1995L42.1536 41.0584V131.02L24.0567 120.738V30.7764L15.0056 25.6343Z" fill="#EC2121"/>
<path d="M42.1528 146.873L35.1873 150.683V44.868L42.1528 41.0579V146.873Z" fill="#EC2121"/>
<path d="M8.04005 29.4459L26.8334 3.51758L44.2368 50.0087L35.1869 44.8689V150.684L17.0899 140.402V34.5857L8.04005 29.4459Z" fill="#FF5F5F"/>
<path d="M26.8347 3.51719L33.8017 -0.292969L51.2047 46.1994L44.238 50.0083L26.8347 3.51719Z" fill="#FF2F2F"/>
<path d="M26.9119 175.102C26.0762 174.588 20.6566 176.069 20.6566 176.069L14.8138 177.998L15.2618 182.328C15.2618 182.328 17.3383 184.514 20.2186 182.606C21.9339 181.468 25.2522 180.003 26.4984 178.236C27.4036 176.951 27.7488 175.616 26.9119 175.102Z" fill="black"/>
<path d="M12.4603 166.704C11.6235 166.19 6.20399 167.672 6.20399 167.672L0.361199 169.601L0.808938 173.93C0.808938 173.93 2.88674 176.116 5.7659 174.209C7.48121 173.071 10.7996 171.605 12.0468 169.838C12.9509 168.554 13.295 167.218 12.4603 166.704Z" fill="black"/>
<path d="M4.98332 127.09C4.98332 127.09 2.2946 129.682 1.87994 135.13C1.69184 137.582 3.0212 148.038 3.0212 148.038C3.0212 148.038 0.975692 153.445 0.470183 156.93C-0.131512 161.068 0.0159209 169.147 0.0159209 169.147C0.361121 170.225 1.5015 171.245 3.77683 171.078C6.11734 170.908 7.76734 167.956 7.76734 167.956C7.76734 167.956 8.57767 161.255 9.3386 156.816C9.77144 154.289 10.2628 152.615 10.5065 150.513C10.6037 148.097 10.853 142.221 10.853 142.221C10.853 142.221 13.6627 153.208 14.5497 156.567C12.8173 162.165 14.3572 177.397 14.5197 178.609C17.9877 181.299 20.1241 178.756 21.5572 176.551C21.4739 173.165 22.0231 167.192 22.1503 162.457C22.2518 158.724 22.1901 157.16 22.2521 155.904C22.3728 153.466 21.2453 146.134 20.6735 140.52C20.0077 133.975 19.873 129.243 19.873 129.243L4.98332 127.09Z" fill="#2A3D4F"/>
<path d="M20.1355 108.807C20.081 112.574 19.4023 119.068 19.4782 121.092C19.6139 124.636 20.6635 132.312 21.2439 135.07C20.0084 136.282 14.9886 138.38 10.7992 137.497C7.81427 136.868 3.13201 135.917 1.37609 132.973C1.35472 132.4 4.19121 125.988 3.84387 124.144C3.0124 119.74 2.62561 114.289 2.51553 110.612C2.43858 108.044 3.45499 104.876 4.51731 103.804C5.67368 102.639 6.6376 101.954 8.61689 102.484C10.2114 102.635 13.7927 104.621 14.963 105.276C18.4203 105.133 20.1504 107.696 20.1355 108.807Z" fill="#3B5770"/>
<path d="M7.38396 104.403L8.02295 100.901L12.9883 102.054C12.9883 102.054 12.3791 103.906 12.9883 105.444C13.0096 105.494 9.22324 105.262 7.38396 104.403Z" fill="#FFAD97"/>
<path d="M6.22794 93.5229C7.24644 91.3933 11.0309 88.9409 14.64 92.2599C16.6033 94.0653 16.8225 98.5992 16.5019 100.899C16.2045 103.033 15.4879 102.996 14.1471 103.229C12.7279 103.475 9.90109 102.789 8.02333 100.899C5.90618 98.7707 5.43601 95.1772 6.22794 93.5229Z" fill="#FFC5B3"/>
<path d="M17.2604 91.9625C17.2604 91.9625 17.1278 93.581 16.027 94.537C14.9273 95.4929 12.7749 96.2733 12.7749 96.2733C12.7749 96.2733 12.7887 96.9642 12.9875 97.8466C13.1863 98.73 12.6627 99.0707 12.6627 99.0707C12.6627 99.0707 11.5492 97.3302 10.7979 98.7289C10.0466 100.128 11.3889 100.899 11.3889 100.899C11.3889 100.899 10.9539 101.955 10.1855 102.665C9.62549 103.184 8.62729 103.879 8.62729 103.879C8.62729 103.879 7.80426 101.671 6.38285 99.6859C4.96358 97.6993 4.55651 96.085 4.55224 95.2721C4.54369 94.0953 4.96364 92.1729 7.38218 91.1265C9.59659 89.0936 12.1092 90.323 12.7569 90.546C13.4035 90.77 14.7918 91.116 15.9513 90.3809C15.8327 91.5272 15.2779 92.3306 15.2779 92.3306C15.2779 92.3306 16.2151 92.2454 17.2604 91.9625Z" fill="black"/>
<path d="M11.131 103.57C13.0525 103.57 14.3981 104.541 14.9613 105.276C14.9613 105.276 11.9099 107.067 9.89107 106.24C8.82661 105.804 7.15831 104.904 6.77464 104.419C6.2531 103.761 7.38389 102.36 7.38389 102.36C7.38389 102.36 8.54464 103.57 11.131 103.57Z" fill="#2A3D4F"/>
<path d="M39.5249 96.1536C39.5249 96.1536 40.8758 94.6108 40.9357 93.5066C40.9955 92.4024 41.1632 91.8881 41.8184 92.3298C42.4735 92.7715 41.8932 93.6412 41.8184 94.1629C41.7446 94.6834 42.4735 95.0525 42.4735 95.0525V93.1396C42.4735 93.1396 44.4166 94.6813 44.2392 96.1536C44.0618 97.6259 42.778 98.2159 41.8867 98.4357C40.9954 98.6566 39.9063 99.0709 39.9063 99.0709L39.5249 96.1536Z" fill="#FFC5B3"/>
<path d="M36.5746 96.8099C36.5746 96.8099 39.0721 95.5122 39.8192 95.6215C41.0439 96.4492 42.0144 97.4178 41.0526 98.8628C40.0244 99.9796 38.3434 100.789 38.3434 100.789L36.5746 96.8099Z" fill="white"/>
<path d="M38.1342 96.0827C39.7843 96.0123 40.9002 97.5024 40.7431 100.09C40.6512 101.623 34.6982 106.839 32.4367 109.03C30.9982 110.423 22.3234 115.716 19.4774 116.975C17.1411 118.007 16.486 115.834 15.9677 114.721C15.1704 113.013 14.9663 107.632 15.8117 106.491C16.9125 105.002 19.175 105.023 20.7193 104.947C22.9626 104.837 26.5524 104.003 28.4013 103.175C30.7771 100.556 36.4157 96.1553 38.1342 96.0827Z" fill="#3B5770"/>
<path d="M82.6415 190.337L75.6744 194.147V130.076L82.6415 126.266V190.337Z" fill="#FFB240"/>
<path d="M122.164 209.522L115.197 213.332V192.035L122.164 188.225L122.164 209.522Z" fill="#FFB240"/>
<path d="M48.5283 114.654L67.3217 88.7258L84.7235 135.218L75.6748 130.077V194.148L57.5754 183.866V119.794L48.5283 114.654Z" fill="#FFC943"/>
<path d="M88.05 176.613L106.843 150.685L124.245 197.177L115.197 192.036V215.007L97.0971 204.725V181.753L88.05 176.613Z" fill="#FFC943"/>
<path d="M67.3206 88.7254L74.2874 84.9153L91.6891 131.409L84.7224 135.218L67.3206 88.7254Z" fill="#FFDC5A"/>
<path d="M106.843 150.684L113.81 146.874L131.212 193.368L124.245 197.177L106.843 150.684Z" fill="#FFDC5A"/>
</g>
</svg>
