<svg width="344" height="395" viewBox="0 0 344 395" fill="none" xmlns="http://www.w3.org/2000/svg">
<path d="M48.178 110.52V219.694L0.604912 192.247V82.4656L48.178 110.52Z" fill="#BA353B"/>
<path d="M95.1406 82.4656V191.638L48.178 219.694V109.91L95.1406 82.4656Z" fill="#E7424A"/>
<path d="M95.1406 82.4655L48.178 55.0198L0.604958 82.4655L47.5676 110.52L95.1406 82.4655Z" fill="#FE4B53"/>
<path d="M118.927 183.707V260.554L71.3539 233.108V155.65L118.927 183.707Z" fill="#BA353B"/>
<path d="M165.89 155.65V232.499L118.927 260.554V183.095L165.89 155.65Z" fill="#E7424A"/>
<path d="M165.89 155.65L118.927 128.205L71.354 155.65L118.318 183.708L165.89 155.65Z" fill="#FE4B53"/>
<path d="M189.677 261.167V302.031L142.103 274.585V233.11L189.677 261.167Z" fill="#BA353B"/>
<path d="M236.639 233.11V273.976L189.677 302.031V260.556L236.639 233.11Z" fill="#E7424A"/>
<path d="M236.639 233.111L189.677 205.665L142.103 233.111L189.066 261.167L236.639 233.111Z" fill="#FE4B53"/>
<path d="M36.0394 21.0662L71.0476 0.607498L140.545 40.3162L141.063 40.6174L176.407 141.21L176.525 141.548L246.54 181.558L211.532 203.834L210.405 203.189L140.608 162.916L140.517 162.662L106.056 61.0762L105.346 60.6658L36.0394 21.0662Z" fill="#BA353B"/>
<path d="M140.517 162.663L176.407 141.211L176.525 141.548L246.54 181.558L246.758 182.175L210.405 203.19L140.608 162.916L140.517 162.663Z" fill="#E7424A"/>
<path d="M36.0393 21.0676L71.0474 0.608873L140.544 40.3175L105.345 60.6672L36.0393 21.0676Z" fill="#E7424A"/>
<path d="M238.278 187.831C238.374 187.831 241.766 188.438 241.766 188.438L244.549 191.155L245.522 192.122C247.361 193.947 249.621 195.295 252.1 196.052L257.795 199.474L260.482 192.819L254.288 190.484L249.288 184.853L245.513 182.04L242.218 180.12L235.854 179.544C234.637 179.544 234.716 180.872 235.676 180.842L234.862 181.21C233.883 181.609 234.488 182.841 235.211 182.775H236.107C235.355 183.19 235.531 184.233 236.587 184.247L238.956 184.343L241.866 185.176L243.081 186.104L238.792 185.624C236.519 185.465 236.296 187.383 238.278 187.831Z" fill="#FFB294"/>
<path d="M255.201 202.419C252.323 198.294 256.833 190.517 260.393 191.456C269.695 194.827 278.364 198.279 284.664 202.035C292.445 206.288 302.892 211.883 308.257 218.884C310.677 227.838 307.151 233.985 301.545 235.434L280.25 214.321L255.201 202.419Z" fill="#3B5770"/>
<path d="M234.578 207.486L233.027 202.515L228.821 197.889L225.686 192.642L223.383 188.035L223.173 186.259C222.886 184.439 224.277 184.101 224.683 185.639L225.046 187.268L227.349 190.724L225.622 186.017L224.944 183.421C224.343 181.269 225.671 180.517 226.325 182.215L227.415 185.477L229.333 188.547L227.479 184.069L226.198 180.039C225.75 178.406 227.043 177.56 227.861 179.145L229.46 183.173L231.827 187.525L230.164 182.215L229.548 179.024C229.14 177.112 230.499 176.6 231.251 178.567L232.402 182.021L234.578 186.756L237.201 190.784L236.56 187.329L234.769 185.154C233.76 183.765 234.688 182.58 235.791 183.557L238.287 186.015L240.271 190.722V198.465L242.446 204.671L234.578 207.486Z" fill="#FFB294"/>
<path d="M289.063 271.415C280.83 278.359 272.106 284.914 271.246 297.602C272.191 306.916 293.329 319.419 308.793 330.034C312.865 332.598 321.457 323.789 318.22 318.659C311.353 311.133 303.854 304.435 295.95 298.277L303.372 285.456L289.063 271.415Z" fill="#2A3D4F"/>
<path d="M308.995 335.946L308.185 329.773L311.108 323.275C312.234 320.772 314.968 319.415 317.644 320.027L318.932 320.324C320.635 321.044 322.349 322.669 324.07 324.751C324.603 325.397 324.75 326.281 324.461 327.064L323.662 329.233L324.922 332.651C322.999 336.933 319.769 339.979 315.565 342.097L308.995 335.946Z" fill="black"/>
<path d="M322.764 371.166L326.812 377.734L325.088 380.973C324.032 382.953 322.077 384.234 319.862 384.586C317.621 384.939 315.879 385.933 314.758 387.724C313.496 390.511 316.374 393.926 322.944 394.383C326.611 393.943 331.025 391.607 333.563 388.803L335.267 389.678C339.358 387.492 342.33 385.61 343.689 382.874C341.2 376.663 338.976 373.672 335.543 372.066L329.784 366.395L322.764 371.166Z" fill="black"/>
<path d="M325.372 379.939C319.756 372.25 313.874 366.149 308.187 360.456C302.393 354.659 296.802 349.287 291.897 343.089C285.992 327.943 282.515 312.511 281.009 296.862C280.887 295.668 280.787 294.474 280.696 293.281L303.372 290.848C303.41 291.498 303.453 292.144 303.497 292.794C303.871 298.052 304.508 303.167 305.252 308.19C306.552 316.931 308.19 325.43 309.381 334.042C318.543 342.541 328.223 357.021 338.062 373.32C339.275 376.832 327.263 383.716 325.372 379.939Z" fill="#2A3D4F"/>
<path opacity="0.3" d="M308.187 360.457C302.393 354.66 296.802 349.288 291.897 343.09C285.992 327.944 282.515 312.512 281.009 296.863L303.145 292.245L303.495 292.797C303.869 298.055 304.506 303.17 305.25 308.194C303.225 309.447 301.103 310.356 298.926 310.862C292.912 312.272 289.278 318.453 290.752 324.45C291.988 329.51 293.418 334.334 295.088 338.86L308.187 360.457Z" fill="#2A3D4F"/>
<path d="M316.924 279.63C316.931 288.466 312.281 295.574 308.005 298.724C303.109 302.342 294.837 303.308 287.753 302.705C284.331 302.412 281.183 301.759 278.825 300.859C274.627 297.003 277.242 285.584 277.232 276.409C277.225 268.866 272.679 263.312 269.043 251.692C267.632 247.202 266.358 241.796 265.538 235.015L273.729 230.448L300.007 218.1C302.605 218.09 303.65 218.03 308.262 218.882C316.198 231.867 312.905 250.284 314.309 263.63C315.055 270.791 316.924 279.63 316.924 279.63Z" fill="#3B5770"/>
<path opacity="0.3" d="M287.751 302.705C284.329 302.412 281.181 301.76 278.823 300.859C274.625 297.004 277.71 285.572 277.23 276.41C276.905 270.195 269.708 257.041 266.698 242.807C268.476 241.042 276.161 244.63 275.566 245.307C274.855 246.117 281.949 264.383 280.696 274.925C279.177 287.7 286.78 301.07 287.751 302.705Z" fill="#2A3D4F"/>
<path d="M275.214 193.04C268.767 193.641 267.184 196.188 267.664 201.951C266.156 205.118 270.237 212.298 272.28 216.684C272.871 217.953 273.901 219.809 276.656 219.527C277.616 219.688 278.009 220.576 278.321 221.502C278.906 223.235 278.721 225.285 278.721 225.285C286.289 224.701 292.617 222.983 294.932 217.602L291.508 214.768L285.909 193.04H275.214Z" fill="#FFB294"/>
<path d="M267.339 204.308C268.376 204.366 269.803 203.656 271.551 207.042C272.225 208.346 272.907 209.833 272.907 209.833L276.552 210.496L278.606 215.118C279.256 216.58 281.607 219.014 283.209 219.033C285.915 219.063 290.24 217.14 291.685 215.263C291.685 215.263 293.012 205.74 291.685 201.29C290.357 196.842 289.376 193.316 285.172 191.346C280.968 189.377 273.775 190.809 270.472 193.041C263.515 198.048 265.355 203.057 267.339 204.308Z" fill="black"/>
<path d="M274.186 211.141C273.922 210.518 273.767 209.847 273.733 209.169C273.703 208.59 273.797 207.933 274.26 207.578C274.698 207.245 275.345 207.304 275.811 207.597C276.278 207.893 276.59 208.373 276.839 208.864C277.525 210.221 277.822 211.806 277.467 213.282C277.363 213.715 277.132 214.202 276.692 214.27C276.256 214.336 275.893 213.955 275.632 213.601C274.929 212.657 274.311 211.648 273.79 210.593L274.186 211.141Z" fill="#FFB294"/>
<path d="M274.655 228.948L278.296 223.939C285.96 223.432 293.596 219.957 295.147 216.947L299.181 218.816L290.669 226.227L274.655 228.948Z" fill="white"/>
<path d="M269.064 229.91C269.064 229.91 279.914 235.977 295.799 226.433C301.099 223.248 301.519 220.075 301.519 220.075C301.83 218.603 299.179 217.269 296.717 217.675C295.085 223.571 281.924 225.999 276.231 226.775L269.064 229.91Z" fill="#1E3A47"/>
<path d="M231.827 205.602C235.306 216.363 237.095 223.651 241.023 229.11C244.44 234.291 258.226 242.043 267.594 246.892C272.176 249.265 275.993 247.43 278.151 242.744L279.519 240.558C281.569 232.902 275.282 229.758 270.315 227.991C263.921 225.714 257.417 222.203 250.83 217.789L242.002 200.61C239.313 197.636 231.827 201.09 231.827 205.602Z" fill="#3B5770"/>
</svg>
