<svg width="19" height="17" viewBox="0 0 19 17" fill="none" xmlns="http://www.w3.org/2000/svg">
<path d="M17.8619 14.7976C17.5057 15.8036 16.0918 16.6379 14.964 16.8815C14.1924 17.0458 13.1846 17.1769 9.79196 15.7704C5.45244 13.9725 2.65786 9.56286 2.44005 9.27675C2.23148 8.99065 0.686523 6.94179 0.686523 4.82279C0.686523 2.70378 1.76264 1.67197 2.19641 1.22897C2.55265 0.865343 3.14147 0.699219 3.70629 0.699219C3.88902 0.699219 4.0533 0.708449 4.20097 0.715832C4.63474 0.73429 4.85254 0.760132 5.13865 1.44493C5.49489 2.30324 6.36243 4.42224 6.46579 4.64005C6.571 4.85786 6.67622 5.15319 6.52855 5.43929C6.39011 5.73462 6.26829 5.86567 6.05048 6.11671C5.83268 6.36774 5.62594 6.5597 5.40814 6.82919C5.20879 7.06361 4.9836 7.31465 5.23463 7.74841C5.48566 8.17295 6.3532 9.5887 7.6305 10.7257C9.27882 12.1932 10.6152 12.662 11.0933 12.8613C11.4495 13.009 11.8741 12.9739 12.1343 12.6971C12.4647 12.3408 12.8726 11.7502 13.288 11.1687C13.5833 10.7516 13.9561 10.6999 14.3475 10.8475C14.7462 10.986 16.8559 12.0289 17.2897 12.2448C17.7235 12.4626 18.0096 12.566 18.1148 12.7487C18.2181 12.9315 18.2181 13.7898 17.8619 14.7976Z" fill="white"/>
</svg>
